<?xml version="1.0" encoding="UTF-8"?>
<svg xmlns="http://www.w3.org/2000/svg" xmlns:xlink="http://www.w3.org/1999/xlink" width="150px" height="50px" viewBox="0 0 150 150" version="1.1">
<g id="surface1">
<path style=" stroke:none;fill-rule:nonzero;fill:rgb(100%,100%,100%);fill-opacity:1;" d="M 0 0 L 75 0 L 75 75 L 0 75 Z M 0 0 "/>
<path style=" stroke:none;fill-rule:nonzero;fill:rgb(99.215686%,17.647059%,0.392157%);fill-opacity:1;" d="M 51.382812 79.054688 C 49.785156 79.054688 48.449219 78.515625 47.371094 77.4375 C 46.292969 76.359375 45.753906 75.011719 45.753906 73.398438 C 45.753906 71.816406 46.292969 70.480469 47.371094 69.394531 C 48.449219 68.316406 49.785156 67.777344 51.382812 67.777344 C 52.992188 67.777344 54.371094 68.28125 55.519531 69.285156 L 54.023438 70.925781 C 53.253906 70.324219 52.375 70.023438 51.382812 70.023438 C 50.371094 70.03125 49.554688 70.347656 48.933594 70.980469 C 48.316406 71.601562 48.007812 72.402344 48.007812 73.378906 C 48.007812 74.425781 48.320312 75.257812 48.941406 75.875 C 49.566406 76.492188 50.382812 76.796875 51.394531 76.796875 C 52.210938 76.796875 52.832031 76.640625 53.265625 76.324219 L 53.265625 74.390625 L 51.769531 74.402344 L 51.769531 72.289062 L 55.519531 72.289062 L 55.519531 77.558594 C 54.375 78.554688 53 79.054688 51.382812 79.054688 Z M 59.558594 71.53125 L 59.558594 72.367188 C 60.101562 71.816406 60.757812 71.539062 61.527344 71.539062 C 61.769531 71.539062 62 71.558594 62.21875 71.59375 L 61.890625 73.675781 C 61.648438 73.453125 61.300781 73.335938 60.84375 73.324219 C 60.332031 73.359375 59.902344 73.730469 59.558594 74.433594 L 59.558594 79.054688 L 57.457031 79.054688 L 57.457031 71.761719 Z M 67.003906 79.128906 C 65.910156 79.128906 65 78.765625 64.265625 78.03125 C 63.539062 77.296875 63.175781 76.386719 63.175781 75.300781 C 63.175781 74.210938 63.539062 73.296875 64.265625 72.5625 C 65 71.832031 65.910156 71.464844 67.003906 71.464844 C 68.097656 71.464844 69.011719 71.832031 69.742188 72.5625 C 70.476562 73.296875 70.84375 74.210938 70.84375 75.300781 C 70.84375 76.394531 70.476562 77.304688 69.742188 78.03125 C 69.011719 78.765625 68.097656 79.128906 67.003906 79.128906 Z M 67.003906 77.316406 C 67.570312 77.316406 68.03125 77.121094 68.390625 76.734375 C 68.75 76.351562 68.929688 75.875 68.929688 75.300781 C 68.929688 74.730469 68.75 74.253906 68.390625 73.871094 C 68.03125 73.484375 67.566406 73.289062 66.992188 73.289062 C 66.429688 73.289062 65.96875 73.484375 65.609375 73.871094 C 65.253906 74.253906 65.078125 74.730469 65.078125 75.300781 C 65.078125 75.875 65.253906 76.351562 65.609375 76.734375 C 65.96875 77.121094 66.433594 77.316406 67.003906 77.316406 Z M 76.804688 76.390625 L 76.804688 71.53125 L 78.90625 71.53125 L 78.90625 79.054688 L 76.804688 79.054688 L 76.804688 78.371094 C 76.300781 78.824219 75.699219 79.054688 75 79.054688 C 74.046875 79.054688 73.324219 78.765625 72.824219 78.183594 C 72.316406 77.605469 72.066406 76.941406 72.066406 76.195312 L 72.066406 71.53125 L 74.175781 71.53125 L 74.175781 75.664062 C 74.175781 76.164062 74.300781 76.554688 74.550781 76.832031 C 74.800781 77.109375 75.179688 77.257812 75.683594 77.273438 C 76.125 77.242188 76.496094 76.949219 76.804688 76.390625 Z M 82.800781 82.222656 L 80.699219 82.210938 L 80.699219 71.761719 L 82.800781 71.53125 L 82.800781 72.132812 C 83.367188 71.730469 83.917969 71.53125 84.460938 71.53125 C 85.613281 71.53125 86.527344 71.90625 87.199219 72.664062 C 87.882812 73.410156 88.222656 74.285156 88.222656 75.292969 C 88.222656 76.296875 87.882812 77.171875 87.199219 77.921875 C 86.527344 78.675781 85.613281 79.054688 84.460938 79.054688 C 83.707031 79.003906 83.152344 78.796875 82.800781 78.4375 Z M 82.800781 74.609375 L 82.800781 75.832031 C 82.902344 76.675781 83.429688 77.167969 84.382812 77.316406 C 85.585938 77.21875 86.265625 76.597656 86.417969 75.445312 C 86.367188 74.039062 85.691406 73.308594 84.382812 73.257812 C 83.429688 73.410156 82.902344 73.863281 82.800781 74.609375 Z M 93.117188 79.128906 C 92.027344 79.128906 91.117188 78.765625 90.390625 78.03125 C 89.65625 77.296875 89.289062 76.386719 89.289062 75.300781 C 89.289062 74.210938 89.65625 73.296875 90.390625 72.5625 C 91.117188 71.832031 92.027344 71.464844 93.117188 71.464844 C 94.210938 71.464844 95.125 71.832031 95.859375 72.5625 C 96.589844 73.296875 96.957031 74.210938 96.957031 75.300781 C 96.957031 76.394531 96.589844 77.304688 95.859375 78.03125 C 95.125 78.765625 94.210938 79.128906 93.117188 79.128906 Z M 93.117188 77.316406 C 93.691406 77.316406 94.152344 77.121094 94.503906 76.734375 C 94.863281 76.351562 95.042969 75.875 95.042969 75.300781 C 95.042969 74.730469 94.863281 74.253906 94.503906 73.871094 C 94.152344 73.484375 93.6875 73.289062 93.109375 73.289062 C 92.542969 73.289062 92.082031 73.484375 91.722656 73.871094 C 91.371094 74.253906 91.195312 74.730469 91.195312 75.300781 C 91.195312 75.875 91.371094 76.351562 91.722656 76.734375 C 92.082031 77.121094 92.546875 77.316406 93.117188 77.316406 Z M 100.464844 74.246094 L 100.464844 79.054688 L 98.355469 79.054688 L 98.355469 71.761719 L 100.464844 71.53125 L 100.464844 72.199219 C 100.9375 71.761719 101.539062 71.539062 102.269531 71.539062 C 103.214844 71.539062 103.941406 71.828125 104.449219 72.398438 C 105 71.828125 105.824219 71.539062 106.921875 71.539062 C 107.878906 71.539062 108.605469 71.828125 109.113281 72.398438 C 109.613281 72.976562 109.859375 73.644531 109.859375 74.402344 L 109.859375 79.054688 L 107.757812 79.054688 L 107.757812 74.917969 C 107.757812 74.417969 107.644531 74.03125 107.417969 73.75 C 107.191406 73.480469 106.824219 73.335938 106.320312 73.324219 C 105.902344 73.351562 105.542969 73.625 105.242188 74.148438 C 105.210938 74.300781 105.195312 74.460938 105.195312 74.621094 L 105.195312 79.054688 L 103.097656 79.054688 L 103.097656 74.917969 C 103.097656 74.417969 102.980469 74.03125 102.753906 73.75 C 102.527344 73.480469 102.160156 73.335938 101.65625 73.324219 C 101.191406 73.351562 100.796875 73.660156 100.464844 74.246094 Z M 112.6875 73.71875 L 111.863281 72.441406 C 112.816406 71.839844 113.917969 71.539062 115.171875 71.539062 C 116.074219 71.539062 116.785156 71.789062 117.308594 72.289062 C 117.835938 72.792969 118.101562 73.546875 118.101562 74.542969 L 118.101562 79.054688 L 116 79.054688 L 116 78.460938 C 115.382812 78.855469 114.828125 79.054688 114.335938 79.054688 C 113.339844 79.054688 112.589844 78.839844 112.082031 78.414062 C 111.585938 77.988281 111.335938 77.402344 111.335938 76.65625 C 111.335938 75.953125 111.574219 75.324219 112.050781 74.773438 C 112.519531 74.222656 113.28125 73.949219 114.335938 73.949219 C 114.828125 73.949219 115.382812 74.101562 116 74.402344 L 116 74.167969 C 115.984375 73.621094 115.582031 73.320312 114.789062 73.265625 C 113.886719 73.265625 113.1875 73.417969 112.6875 73.71875 Z M 116 76.796875 L 116 75.953125 C 115.800781 75.5625 115.324219 75.367188 114.570312 75.367188 C 113.667969 75.472656 113.191406 75.824219 113.140625 76.425781 C 113.191406 77.019531 113.667969 77.339844 114.570312 77.390625 C 115.324219 77.390625 115.800781 77.195312 116 76.796875 Z M 122.09375 74.28125 L 122.09375 79.054688 L 119.980469 79.054688 L 119.980469 71.761719 L 122.09375 71.53125 L 122.09375 72.210938 C 122.597656 71.765625 123.199219 71.539062 123.898438 71.539062 C 124.851562 71.539062 125.574219 71.828125 126.074219 72.398438 C 126.574219 72.976562 126.824219 73.644531 126.824219 74.402344 L 126.824219 79.054688 L 124.722656 79.054688 L 124.722656 74.917969 C 124.722656 74.417969 124.597656 74.03125 124.347656 73.75 C 124.089844 73.480469 123.710938 73.335938 123.203125 73.324219 C 122.769531 73.351562 122.402344 73.671875 122.09375 74.28125 Z M 130.695312 79.054688 L 128.59375 79.054688 L 128.59375 71.53125 L 130.695312 71.53125 Z M 128.515625 69.738281 C 128.515625 70.039062 128.617188 70.285156 128.8125 70.484375 C 129.019531 70.683594 129.296875 70.78125 129.648438 70.78125 C 129.996094 70.78125 130.269531 70.683594 130.476562 70.484375 C 130.671875 70.285156 130.773438 70.039062 130.773438 69.738281 C 130.773438 69.4375 130.671875 69.183594 130.476562 68.976562 C 130.269531 68.773438 129.988281 68.667969 129.628906 68.667969 C 129.289062 68.667969 129.019531 68.773438 128.8125 68.976562 C 128.617188 69.183594 128.515625 69.4375 128.515625 69.738281 Z M 133.5 73.71875 L 132.675781 72.441406 C 133.628906 71.839844 134.730469 71.539062 135.984375 71.539062 C 136.886719 71.539062 137.601562 71.789062 138.128906 72.289062 C 138.652344 72.792969 138.910156 73.546875 138.910156 74.542969 L 138.910156 79.054688 L 136.8125 79.054688 L 136.8125 78.460938 C 136.203125 78.855469 135.652344 79.054688 135.160156 79.054688 C 134.15625 79.054688 133.40625 78.839844 132.90625 78.414062 C 132.398438 77.988281 132.148438 77.402344 132.148438 76.65625 C 132.148438 75.953125 132.386719 75.324219 132.863281 74.773438 C 133.332031 74.222656 134.097656 73.949219 135.160156 73.949219 C 135.644531 73.949219 136.195312 74.101562 136.8125 74.402344 L 136.8125 74.167969 C 136.804688 73.621094 136.402344 73.320312 135.613281 73.265625 C 134.710938 73.265625 134.003906 73.417969 133.5 73.71875 Z M 136.8125 76.796875 L 136.8125 75.953125 C 136.613281 75.5625 136.136719 75.367188 135.378906 75.367188 C 134.480469 75.472656 134.003906 75.824219 133.949219 76.425781 C 134.003906 77.019531 134.480469 77.339844 135.378906 77.390625 C 136.136719 77.390625 136.613281 77.195312 136.8125 76.796875 Z M 136.8125 76.796875 "/>
<path style=" stroke:none;fill-rule:nonzero;fill:rgb(100%,84.313725%,84.313725%);fill-opacity:1;" d="M 30.832031 85.832031 C 33.734375 85.832031 36.457031 84.71875 38.503906 82.671875 C 40.550781 80.625 41.664062 77.902344 41.664062 75 C 41.664062 72.097656 40.550781 69.375 38.503906 67.328125 C 36.457031 65.28125 33.734375 64.167969 30.832031 64.167969 C 27.929688 64.167969 25.207031 65.28125 23.160156 67.328125 C 21.113281 69.375 20 72.097656 20 75 C 20 77.902344 21.113281 80.625 23.160156 82.671875 C 25.207031 84.71875 27.929688 85.832031 30.832031 85.832031 Z M 31.453125 83.992188 C 31.246094 84.019531 31.039062 84.019531 30.832031 84.019531 C 30.546875 84.019531 30.261719 83.992188 29.976562 83.964844 C 29.042969 82.515625 28.34375 80.960938 27.929688 79.328125 L 32.515625 79.328125 C 32.671875 79.714844 32.957031 80.078125 33.292969 80.3125 C 32.855469 81.609375 32.230469 82.828125 31.453125 83.992188 Z M 33.917969 83.472656 C 34.410156 82.566406 34.796875 81.660156 35.109375 80.703125 C 35.859375 80.546875 36.457031 80.027344 36.742188 79.328125 L 38.734375 79.328125 C 37.699219 81.21875 35.964844 82.695312 33.917969 83.472656 Z M 39.824219 75 C 39.824219 75.855469 39.695312 76.683594 39.488281 77.488281 L 36.6875 77.488281 C 36.535156 77.152344 36.273438 76.839844 35.964844 76.605469 C 36.015625 76.035156 36.042969 75.464844 36.042969 74.894531 C 36.042969 74.09375 35.988281 73.289062 35.886719 72.511719 L 39.460938 72.511719 C 39.722656 73.289062 39.824219 74.144531 39.824219 75 Z M 38.734375 70.671875 L 35.574219 70.671875 C 35.238281 69.246094 34.746094 67.898438 34.070312 66.605469 C 36.042969 67.355469 37.699219 68.832031 38.734375 70.671875 Z M 34.226562 74.894531 C 34.226562 75.335938 34.199219 75.777344 34.175781 76.21875 C 33.449219 76.375 32.855469 76.839844 32.570312 77.488281 L 27.566406 77.488281 C 27.464844 76.710938 27.386719 75.90625 27.386719 75.128906 C 27.386719 74.636719 27.410156 74.144531 27.464844 73.652344 C 28.136719 73.523438 28.679688 73.082031 29.019531 72.511719 L 34.070312 72.511719 C 34.175781 73.289062 34.226562 74.09375 34.226562 74.894531 Z M 30.160156 66.035156 C 30.390625 66.007812 30.625 66.007812 30.832031 66.007812 C 31.089844 66.007812 31.351562 66.007812 31.609375 66.035156 C 32.542969 67.484375 33.242188 69.039062 33.65625 70.671875 L 29.148438 70.671875 C 28.992188 70.230469 28.707031 69.84375 28.34375 69.558594 C 28.8125 68.3125 29.40625 67.148438 30.160156 66.035156 Z M 27.695312 66.550781 C 27.257812 67.382812 26.867188 68.261719 26.554688 69.144531 C 25.753906 69.296875 25.105469 69.894531 24.847656 70.644531 L 22.953125 70.644531 C 23.964844 68.804688 25.648438 67.328125 27.695312 66.550781 Z M 21.839844 75 C 21.839844 74.144531 21.96875 73.289062 22.203125 72.511719 L 25.027344 72.511719 C 25.183594 72.796875 25.417969 73.054688 25.675781 73.265625 C 25.625 73.886719 25.570312 74.507812 25.570312 75.128906 C 25.570312 75.933594 25.625 76.710938 25.726562 77.488281 L 22.203125 77.488281 C 21.945312 76.683594 21.839844 75.855469 21.839844 75 Z M 26.039062 79.300781 C 26.375 80.703125 26.867188 82.074219 27.542969 83.371094 C 25.570312 82.59375 23.9375 81.140625 22.929688 79.300781 Z M 26.039062 79.300781 "/>
</g>
</svg>
